<svg version="1.1" xmlns="http://www.w3.org/2000/svg" xmlns:xlink="http://www.w3.org/1999/xlink" preserveAspectRatio="xMidYMid meet" viewBox="0 0 512 512" width="512" height="512"><defs><path d="M0 256.01C0 369.29 73.28 464.97 175.04 498.89C187.84 501.13 192.64 493.45 192.64 486.73C192.64 480.65 192.32 460.49 192.32 439.05C128 450.89 111.36 423.37 106.24 408.97C103.36 401.61 90.88 378.89 80 372.81C71.04 368.01 58.24 356.17 79.68 355.85C99.84 355.53 114.24 374.41 119.04 382.09C142.08 420.81 178.88 409.93 193.6 403.21C195.84 386.57 202.56 375.37 209.92 368.97C152.96 362.57 93.44 340.49 93.44 242.57C93.44 214.73 103.36 191.69 119.68 173.77C117.12 167.37 108.16 141.13 122.24 105.93C122.24 105.93 143.68 99.21 192.64 132.17C213.12 126.41 234.88 123.53 256.64 123.53C278.4 123.53 300.16 126.41 320.64 132.17C369.6 98.89 391.04 105.93 391.04 105.93C405.12 141.13 396.16 167.37 393.6 173.77C409.92 191.69 419.84 214.41 419.84 242.57C419.84 340.81 360 362.57 303.04 368.97C312.32 376.97 320.32 392.33 320.32 416.33C320.32 450.57 320 478.09 320 486.73C320 493.45 324.8 501.45 337.6 498.89C438.72 464.97 512 368.97 512 256.01C512 114.57 397.44 0 256 0C114.56 0 0 114.57 0 256.01Z" id="a1npsVmNka"></path></defs><g><g><g><use xlink:href="#a1npsVmNka" opacity="1" fill="#ffffff" fill-opacity="1"></use><g><use xlink:href="#a1npsVmNka" opacity="1" fill-opacity="0" stroke="#000000" stroke-width="1" stroke-opacity="0"></use></g></g></g></g></svg>